<svg id="visual" viewBox="0 0 900 600" width="900" height="600" xmlns="http://www.w3.org/2000/svg" xmlns:xlink="http://www.w3.org/1999/xlink" version="1.1"><rect x="0" y="0" width="900" height="600" fill="#001220"></rect><defs><linearGradient id="grad1_0" x1="33.3%" y1="0%" x2="100%" y2="100%"><stop offset="20%" stop-color="#001220" stop-opacity="1"></stop><stop offset="80%" stop-color="#001220" stop-opacity="1"></stop></linearGradient></defs><defs><linearGradient id="grad2_0" x1="0%" y1="0%" x2="66.7%" y2="100%"><stop offset="20%" stop-color="#001220" stop-opacity="1"></stop><stop offset="80%" stop-color="#001220" stop-opacity="1"></stop></linearGradient></defs><g transform="translate(900, 0)"><path d="M0 216.3C-26 209.1 -52 201.9 -80 193.1C-107.9 184.3 -137.9 174 -153 153C-168.1 132 -168.4 100.4 -176.5 73.1C-184.6 45.8 -200.4 22.9 -216.3 0L0 0Z" fill="#FBAE3C"></path></g><g transform="translate(0, 600)"><path d="M0 -216.3C29.9 -213.4 59.8 -210.5 81.1 -195.9C102.4 -181.3 115.1 -155 135.8 -135.8C156.4 -116.5 185.1 -104.2 199.9 -82.8C214.6 -61.3 215.5 -30.7 216.3 0L0 0Z" fill="#FBAE3C"></path></g></svg>